<svg xmlns="http://www.w3.org/2000/svg" style="display: none;">
    <symbol id="floppy" viewBox="0 0 21 21" fill="none" width="21" height="21">
        <path fill="#000" d="M0 0h1.62v1.62H0zm0 1.62h1.62v1.62H0z"/>
        <path fill="#000" d="M0 3.23h1.62v1.62H0zm0 1.62h1.62v1.62H0z"/>
        <path fill="#000" d="M0 6.46h1.62v1.62H0zm0 1.62h1.62V9.7H0z"/>
        <path fill="#000" d="M0 9.69h1.62v1.62H0zm0 1.62h1.62v1.62H0z"/>
        <path fill="#000" d="M0 12.92h1.62v1.62H0zm0 1.62h1.62v1.62H0z"/>
        <path fill="#000" d="M0 16.15h1.62v1.62H0zm0 1.62h1.62v1.62H0z"/>
        <path fill="#000" d="M0 19.38h1.62V21H0zM17.77 0v1.62h-1.62V0zm-1.62 0v1.62h-1.62V0z"/>
        <path fill="#000" d="M14.54 0v1.62h-1.62V0z"/>
        <path fill="#000" d="M12.92 0v1.62H11.3V0zM11.3 0v1.62H9.7V0zM9.7 0v1.62H8.06V0z"/>
        <path fill="#000" d="M8.08 0v1.62H6.46V0zM6.46 0v1.62H4.84V0z"/>
        <path fill="#000" d="M4.85 0v1.62H3.23V0zM3.23 0v1.62H1.61V0zm16.15 1.61v1.62h-1.62V1.61zM4.85 3.23v1.62H3.23V3.23z"/>
        <path fill="#000" d="M4.84 1.62v1.62H3.22V1.62zm0 3.23v1.62H3.22V4.85zm11.31-1.62v1.62h-1.62V3.23z"/>
        <path fill="#000" d="M16.15 1.61v1.62h-1.62V1.61zm0 3.23v1.62h-1.62V4.84zm-3.23-1.61v1.62H11.3V3.23z"/>
        <path fill="#000" d="M12.92 1.61v1.62H11.3V1.61zm0 3.23v1.62H11.3V4.84zm3.24 1.62v1.62h-1.62V6.46zm-1.62 0v1.62h-1.62V6.46z"/>
        <path fill="#000" d="M12.92 6.46v1.62H11.3V6.46zm-1.62 0v1.62H9.7V6.46zm-1.6 0v1.62H8.06V6.46z"/>
        <path fill="#000" d="M8.08 6.46v1.62H6.46V6.46zm-1.62 0v1.62H4.84V6.46z"/>
        <path fill="#000" d="M4.85 6.47v1.62H3.23V6.47zm12.92 4.83v1.63h-1.62V11.3zm-1.62 0v1.62h-1.62V11.3z"/>
        <path fill="#000" d="M14.54 11.3v1.63h-1.62V11.3z"/>
        <path fill="#000" d="M12.92 11.3v1.62H11.3V11.3zm-1.62.01v1.62H9.7v-1.62zm-1.61-.01v1.63H8.07V11.3zm-1.62.01v1.62H6.45v-1.62z"/>
        <path fill="#000" d="M6.46 11.3v1.63H4.84V11.3zm-1.62.01v1.62H3.22v-1.62zm12.93 1.61v1.62h-1.62v-1.62zm-12.92.01v1.62H3.23v-1.62zm12.92 1.61v1.62h-1.62v-1.62z"/>
        <path fill="#000" d="M4.84 14.54v1.62H3.22v-1.62zm12.93 1.61v1.62h-1.62v-1.62zm-12.92.01v1.62H3.23v-1.62z"/>
        <path fill="#000" d="M4.85 17.77v1.62H3.23v-1.62zm12.92 0v1.62h-1.62v-1.62zm1.62 1.61V21h-1.62v-1.62z"/>
        <path fill="#000" d="M17.77 19.39V21h-1.62v-1.62z"/>
        <path fill="#000" d="M16.16 19.38V21h-1.62v-1.62zm-1.62.01V21h-1.62v-1.62z"/>
        <path fill="#000" d="M12.93 19.38V21H11.3v-1.62z"/>
        <path fill="#000" d="M11.31 19.39V21H9.7v-1.62zm-1.61-.01V21H8.08v-1.62zm-1.62.01V21H6.46v-1.62z"/>
        <path fill="#000" d="M6.47 19.38V21H4.85v-1.62zm-1.62.01V21H3.23v-1.62z"/>
        <path fill="#000" d="M3.24 19.38V21H1.62v-1.62zM21 21h-1.62v-1.62H21z"/>
        <path fill="#000" d="M21 19.39h-1.62v-1.62H21zm0-1.62h-1.62v-1.62H21z"/>
        <path fill="#000" d="M21 16.16h-1.62v-1.62H21zm0-1.62h-1.62v-1.62H21z"/>
        <path fill="#000" d="M21 12.93h-1.62V11.3H21zm0-1.63h-1.62V9.7H21zm0-1.6h-1.62V8.06H21z"/>
        <path fill="#000" d="M21 8.07h-1.62V6.45H21z"/>
        <path fill="#000" d="M21 6.46h-1.62V4.84H21zm0-1.62h-1.62V3.22H21z"/>
    </symbol>
</svg>